# xmcd
#
# Track frame offsets:
#	150
#	17205
#	39880
#	57365
#	72835
#	87905
#	108425
#	128495
#	149700
#	169250
#	185925
#
# Disc length: 2738 seconds
#
# Revision: 1
# Processed by: cddbd v1.5.1PL0 Copyright (c) Steve Scherf et al.
# Submitted via: audiograbber 1.83.01
#
DISCID=9d0ab00b
DTITLE=The Softones - Carla My Love
DYEAR=1900
DGENRE=Beach Music
TTITLE0=Dreamlove Mistreated
TTITLE1=Carla My Love
TTITLE2=Where There's A Will There's A Way
TTITLE3=I Love To Sing The Songs I Sing
TTITLE4=We Don't Know How To Say Goodbye
TTITLE5=Living With A Lie
TTITLE6=Build A Love That's True
TTITLE7=Let It Come On In
TTITLE8=You Go Your Way, I'll Go Mine
TTITLE9=Love Is Not All
TTITLE10=Can You Love A Poor Boy
EXTD=
EXTT0=
EXTT1=
EXTT2=
EXTT3=
EXTT4=
EXTT5=
EXTT6=
EXTT7=
EXTT8=
EXTT9=
EXTT10=
PLAYORDER=
